<svg id="svg" version="1.1" xmlns="http://www.w3.org/2000/svg" xmlns:xlink="http://www.w3.org/1999/xlink" width="400" height="253.40668641557343" viewBox="0, 0, 400,253.40668641557343"><g id="svgg"><path id="path0" d="M218.113 33.284 C 199.365 35.164,187.814 45.282,183.075 63.975 C 182.296 67.048,162.164 161.995,161.824 164.198 C 160.037 175.789,162.415 184.480,168.662 189.188 C 170.300 190.423,170.253 190.418,171.604 189.544 C 183.446 181.883,200.493 176.522,219.636 174.437 C 221.777 174.204,224.025 173.957,224.630 173.888 L 225.730 173.762 226.605 171.717 C 228.662 166.911,229.113 165.203,232.247 150.317 C 233.550 144.126,234.656 138.889,234.705 138.680 L 234.793 138.299 221.671 138.299 C 214.453 138.299,208.548 138.331,208.548 138.370 C 208.548 138.952,203.665 161.369,203.273 162.588 C 201.724 167.399,197.858 169.954,193.124 169.296 C 189.786 168.832,188.325 167.118,188.347 163.690 C 188.359 161.919,208.012 68.499,209.073 65.171 C 210.596 60.397,213.791 58.050,218.451 58.281 C 222.528 58.484,224.270 60.347,224.083 64.306 C 224.020 65.632,219.757 86.719,219.108 88.912 C 219.025 89.193,219.725 89.209,232.148 89.209 L 245.275 89.209 245.363 88.828 C 246.206 85.195,250.440 64.578,250.696 62.862 C 253.247 45.752,246.753 36.071,231.062 33.590 C 229.359 33.321,219.963 33.099,218.113 33.284 M265.578 57.935 C 264.595 70.248,263.807 80.345,263.828 80.374 C 263.882 80.449,290.024 70.400,290.209 70.233 C 290.294 70.157,291.134 62.321,292.077 52.821 L 293.792 35.548 280.579 35.548 L 267.365 35.548 265.578 57.935 M319.116 81.243 C 311.172 84.303,304.652 86.833,304.627 86.865 C 304.603 86.897,299.448 102.704,293.171 121.991 C 286.895 141.278,281.750 157.046,281.738 157.031 C 281.725 157.016,283.142 142.683,284.886 125.180 C 286.630 107.677,288.036 93.330,288.011 93.299 C 287.986 93.267,282.170 95.470,275.087 98.194 L 262.209 103.147 262.209 103.837 C 262.208 104.217,261.373 119.915,260.352 138.722 C 259.332 157.529,258.475 173.373,258.448 173.931 L 258.400 174.946 262.548 175.397 C 278.529 177.136,296.492 178.120,296.820 177.275 C 299.239 171.047,329.260 89.434,331.136 83.986 C 332.621 79.670,333.878 76.033,333.928 75.903 C 334.089 75.482,333.748 75.605,319.116 81.243 " stroke="none" fill="#8cac1c" fill-rule="evenodd"></path><path id="path1" d="M320.567 31.279 C 319.008 31.993,317.732 32.617,317.732 32.666 C 317.733 32.715,321.618 37.092,326.367 42.394 C 331.115 47.695,334.943 52.081,334.872 52.140 C 334.621 52.351,323.480 57.385,323.264 57.385 C 323.144 57.385,321.716 56.701,320.092 55.865 C 318.468 55.030,316.949 54.344,316.716 54.341 C 316.236 54.336,311.980 56.209,311.978 56.426 C 311.977 56.504,313.317 58.066,314.955 59.897 C 318.485 63.840,318.067 62.922,318.742 68.218 C 319.044 70.592,319.321 72.566,319.357 72.605 C 319.417 72.668,323.974 70.649,324.155 70.480 C 324.197 70.441,324.617 68.837,325.089 66.916 L 325.948 63.424 331.531 60.863 C 334.601 59.455,337.265 58.217,337.449 58.112 C 337.776 57.925,337.821 58.215,339.331 70.390 C 340.182 77.249,340.908 83.031,340.943 83.239 C 341.002 83.585,346.470 81.384,347.037 80.785 C 347.103 80.716,347.770 74.604,348.522 67.203 C 349.273 59.801,349.946 53.485,350.018 53.167 C 350.148 52.592,350.178 52.576,358.140 48.926 C 368.425 44.210,368.264 44.320,368.144 42.131 C 368.033 40.098,366.886 39.009,364.875 39.027 C 363.919 39.036,363.392 39.251,355.819 42.729 C 351.397 44.760,347.700 46.425,347.604 46.430 C 347.508 46.434,342.214 42.756,335.839 38.255 C 329.413 33.718,324.060 30.052,323.826 30.026 C 323.579 30.000,322.222 30.521,320.567 31.279 M59.261 212.847 C 58.210 214.168,58.210 214.135,59.241 214.135 C 60.014 214.135,60.113 214.087,60.490 213.532 L 60.900 212.930 61.272 213.532 C 61.615 214.087,63.309 214.503,63.309 214.032 C 63.309 213.413,61.524 211.765,60.855 211.765 C 60.157 211.765,60.081 211.816,59.261 212.847 M47.967 214.657 C 43.829 215.857,43.211 223.262,47.072 225.389 C 48.422 226.133,50.770 226.141,52.096 225.406 C 53.785 224.471,54.938 222.270,53.872 222.016 C 53.616 221.955,53.280 221.868,53.126 221.822 C 52.918 221.761,52.737 221.975,52.428 222.650 C 51.291 225.134,47.954 225.172,46.691 222.716 C 46.234 221.827,46.083 219.781,46.382 218.534 C 47.123 215.444,51.379 214.867,52.453 217.711 C 52.621 218.156,54.168 218.106,54.168 217.655 C 54.168 215.546,50.695 213.867,47.967 214.657 M58.434 214.991 C 55.920 216.247,54.871 219.475,55.953 222.631 C 57.411 226.887,63.864 227.094,65.737 222.946 C 68.022 217.886,63.184 212.617,58.434 214.991 M102.751 215.320 C 102.751 216.068,102.792 216.166,103.108 216.166 C 103.564 216.166,103.429 216.941,102.893 217.394 C 102.606 217.637,102.580 217.737,102.752 217.944 C 103.432 218.764,104.274 217.586,104.274 215.814 L 104.274 214.473 103.512 214.473 L 102.751 214.473 102.751 215.320 M123.796 214.750 C 119.203 216.378,119.517 224.386,124.227 225.756 C 128.026 226.860,131.105 224.388,131.104 220.232 C 131.104 215.905,127.714 213.362,123.796 214.750 M165.706 214.736 C 161.295 216.095,161.298 224.416,165.710 225.713 C 168.754 226.609,171.409 225.296,172.228 222.493 C 172.319 222.180,170.911 221.518,170.724 221.787 C 170.705 221.814,170.586 222.094,170.461 222.409 C 168.641 226.972,163.046 223.795,164.197 218.853 C 164.998 215.414,169.415 214.681,170.372 217.829 C 170.443 218.062,170.584 218.186,170.718 218.135 C 170.843 218.087,171.219 217.996,171.555 217.933 C 172.080 217.835,172.149 217.769,172.053 217.458 C 171.312 215.051,168.541 213.863,165.706 214.736 M176.874 214.707 C 172.519 216.263,172.286 223.574,176.530 225.535 C 178.941 226.650,182.342 225.562,183.471 223.313 C 185.947 218.386,181.783 212.953,176.874 214.707 M200.698 214.722 C 198.620 215.463,197.924 217.944,199.387 219.398 C 200.017 220.025,200.572 220.252,203.103 220.918 C 204.765 221.355,205.501 221.879,205.501 222.625 C 205.501 225.142,200.638 225.076,199.880 222.548 C 199.698 221.940,199.647 221.899,199.186 221.991 C 198.912 222.046,198.583 222.091,198.455 222.091 C 198.124 222.091,198.168 222.888,198.544 223.699 C 200.020 226.888,206.149 226.697,207.028 223.435 C 207.616 221.252,206.438 220.029,202.878 219.128 C 200.847 218.613,200.358 218.303,200.287 217.483 C 200.097 215.274,204.672 215.362,205.115 217.576 C 205.206 218.031,205.254 218.057,205.822 217.963 C 206.158 217.908,206.534 217.862,206.658 217.861 C 207.157 217.856,206.496 216.135,205.717 215.413 C 204.764 214.530,202.220 214.179,200.698 214.722 M215.389 214.793 C 214.009 215.635,213.710 217.123,214.631 218.575 L 215.128 219.358 214.673 219.646 C 213.320 220.504,212.732 221.428,212.732 222.698 C 212.732 225.641,216.158 227.008,218.782 225.111 L 219.452 224.628 220.143 225.306 C 220.971 226.119,221.044 226.127,221.672 225.472 L 222.162 224.959 221.299 224.096 L 220.436 223.233 220.824 222.366 C 221.520 220.807,221.520 220.803,220.666 220.588 C 220.250 220.484,219.875 220.398,219.834 220.398 C 219.792 220.398,219.709 220.662,219.648 220.984 C 219.482 221.870,219.339 221.834,218.406 220.669 L 217.547 219.598 218.264 219.092 C 221.106 217.089,218.360 212.982,215.389 214.793 M291.240 214.718 C 289.799 215.248,288.888 216.910,289.294 218.267 C 289.700 219.622,290.434 220.067,293.665 220.918 C 295.359 221.363,296.064 221.876,296.064 222.660 C 296.064 225.230,290.958 224.999,290.388 222.403 C 290.285 221.933,290.227 221.895,289.763 221.988 C 289.481 222.045,289.146 222.091,289.018 222.091 C 288.687 222.091,288.731 222.888,289.106 223.699 C 290.908 227.590,298.429 226.191,297.672 222.106 C 297.388 220.574,296.484 219.922,293.624 219.183 C 290.844 218.465,290.137 217.666,291.276 216.527 C 292.563 215.240,295.726 216.023,295.726 217.630 C 295.726 218.047,295.762 218.066,296.361 217.967 C 296.710 217.910,297.097 217.862,297.220 217.861 C 297.938 217.855,296.727 215.564,295.700 214.986 C 294.773 214.463,292.331 214.317,291.240 214.718 M67.203 215.404 L 67.203 216.166 68.980 216.166 L 70.758 216.166 70.758 220.990 L 70.758 225.815 71.604 225.815 L 72.450 225.815 72.450 220.990 L 72.450 216.166 74.228 216.166 L 76.005 216.166 76.005 215.404 L 76.005 214.642 71.604 214.642 L 67.203 214.642 67.203 215.404 M77.359 220.229 L 77.359 225.815 81.591 225.815 L 85.823 225.815 85.823 225.053 L 85.823 224.291 82.438 224.291 L 79.052 224.291 79.052 222.514 L 79.052 220.736 82.099 220.736 L 85.146 220.736 85.146 219.975 L 85.146 219.213 82.099 219.213 L 79.052 219.213 79.052 217.689 L 79.052 216.166 82.268 216.166 L 85.485 216.166 85.485 215.404 L 85.485 214.642 81.422 214.642 L 77.359 214.642 77.359 220.229 M91.917 220.245 L 91.917 225.848 94.837 225.779 C 99.709 225.664,101.108 224.406,101.108 220.144 C 101.108 215.913,99.623 214.642,94.680 214.642 L 91.917 214.642 91.917 220.245 M106.644 220.229 L 106.644 225.815 107.490 225.815 L 108.337 225.815 108.337 220.229 L 108.337 214.642 107.490 214.642 L 106.644 214.642 106.644 220.229 M109.550 214.788 C 109.581 214.869,110.559 217.386,111.722 220.382 L 113.838 225.829 114.678 225.780 L 115.517 225.730 117.667 220.229 L 119.817 214.727 119.047 214.674 C 118.623 214.646,118.219 214.684,118.149 214.759 C 118.019 214.899,115.216 222.349,114.873 223.467 C 114.687 224.071,114.655 224.000,113.009 219.362 L 111.334 214.642 110.414 214.642 C 109.908 214.642,109.519 214.708,109.550 214.788 M133.220 220.229 L 133.220 225.815 133.982 225.815 L 134.744 225.815 134.744 220.229 L 134.744 214.642 133.982 214.642 L 133.220 214.642 133.220 220.229 M137.283 220.229 L 137.283 225.815 138.045 225.815 L 138.807 225.815 138.807 223.360 L 138.807 220.906 140.034 220.907 C 141.798 220.908,142.372 221.413,144.436 224.779 L 145.071 225.815 146.086 225.815 C 146.644 225.815,147.101 225.777,147.101 225.732 C 147.101 225.449,144.514 221.741,144.007 221.297 L 143.390 220.758 144.018 220.555 C 145.468 220.084,146.085 219.206,146.085 217.613 C 146.085 215.157,145.100 214.645,140.372 214.643 L 137.283 214.642 137.283 220.229 M148.286 220.229 L 148.286 225.815 152.518 225.815 L 156.750 225.815 156.750 225.053 L 156.750 224.291 153.364 224.291 L 149.979 224.291 149.979 222.514 L 149.979 220.736 153.026 220.736 L 156.073 220.736 156.073 219.975 L 156.073 219.213 153.026 219.213 L 149.979 219.213 149.979 217.689 L 149.979 216.166 153.195 216.166 L 156.411 216.166 156.411 215.404 L 156.411 214.642 152.349 214.642 L 148.286 214.642 148.286 220.229 M185.865 220.229 L 185.865 225.815 189.336 225.815 L 192.806 225.815 192.806 225.053 L 192.806 224.291 190.097 224.291 L 187.389 224.291 187.389 219.467 L 187.389 214.642 186.627 214.642 L 185.865 214.642 185.865 220.229 M194.668 220.229 L 194.668 225.815 195.514 225.815 L 196.361 225.815 196.361 220.229 L 196.361 214.642 195.514 214.642 L 194.668 214.642 194.668 220.229 M226.661 214.763 C 226.661 214.838,227.121 216.080,227.684 217.522 C 228.247 218.964,229.205 221.420,229.814 222.979 L 230.921 225.815 231.737 225.815 L 232.554 225.815 233.526 223.318 C 234.061 221.945,235.021 219.490,235.658 217.864 C 237.038 214.346,237.006 214.642,236.002 214.642 L 235.186 214.642 233.505 219.211 C 232.580 221.724,231.786 223.780,231.739 223.781 C 231.692 223.782,230.926 221.746,230.037 219.255 L 228.421 214.727 227.541 214.676 C 227.057 214.648,226.661 214.687,226.661 214.763 M238.172 220.229 L 238.172 225.815 239.018 225.815 L 239.865 225.815 239.865 220.229 L 239.865 214.642 239.018 214.642 L 238.172 214.642 238.172 220.229 M241.280 215.014 C 241.336 215.228,242.288 217.727,243.394 220.567 L 245.406 225.730 246.243 225.780 L 247.080 225.830 249.228 220.331 C 251.741 213.896,251.568 214.642,250.546 214.642 C 249.794 214.642,249.700 214.686,249.548 215.108 C 249.456 215.364,248.721 217.364,247.916 219.551 C 247.111 221.739,246.411 223.644,246.362 223.783 C 246.312 223.923,245.527 221.942,244.616 219.382 L 242.960 214.727 242.069 214.675 C 241.211 214.625,241.181 214.638,241.280 215.014 M252.560 220.216 L 252.560 225.815 253.407 225.815 L 254.253 225.815 254.253 223.360 L 254.253 220.906 255.413 220.906 C 257.029 220.906,257.424 221.211,259.077 223.735 L 260.432 225.803 261.405 225.809 C 261.940 225.812,262.378 225.764,262.378 225.702 C 262.378 225.419,260.191 222.113,259.575 221.465 L 258.887 220.742 259.452 220.555 C 261.287 219.950,262.068 217.910,261.139 216.152 C 260.441 214.833,260.106 214.735,256.073 214.672 L 252.560 214.618 252.560 220.216 M263.902 220.229 L 263.902 225.815 264.664 225.815 L 265.425 225.815 265.425 220.229 L 265.425 214.642 264.664 214.642 L 263.902 214.642 263.902 220.229 M267.964 220.229 L 267.964 225.815 272.112 225.815 L 276.259 225.815 276.259 225.053 L 276.259 224.291 272.873 224.291 L 269.488 224.291 269.488 222.514 L 269.488 220.736 272.535 220.736 L 275.582 220.736 275.582 219.975 L 275.582 219.213 272.535 219.213 L 269.488 219.213 269.488 217.689 L 269.488 216.166 272.789 216.166 L 276.090 216.166 276.090 215.404 L 276.090 214.642 272.027 214.642 L 267.964 214.642 267.964 220.229 M278.121 220.216 L 278.121 225.815 278.967 225.815 L 279.814 225.815 279.814 223.342 L 279.814 220.870 281.158 220.931 C 282.823 221.006,283.051 221.191,284.837 223.910 L 286.087 225.815 287.104 225.815 C 288.095 225.815,288.115 225.805,287.923 225.447 C 287.275 224.235,285.536 221.756,285.013 221.297 L 284.397 220.758 285.026 220.555 C 286.556 220.058,287.170 219.123,287.063 217.449 C 286.913 215.095,286.226 214.744,281.634 214.672 L 278.121 214.618 278.121 220.216 M217.258 215.824 C 218.197 216.181,218.155 217.504,217.183 218.196 C 216.192 218.902,215.139 216.768,216.104 216.009 C 216.615 215.607,216.665 215.599,217.258 215.824 M61.972 216.020 C 65.653 217.252,65.384 223.607,61.616 224.443 C 59.034 225.016,56.958 222.739,57.277 219.684 C 57.569 216.887,59.669 215.249,61.972 216.020 M126.835 216.007 C 130.497 217.024,130.317 223.651,126.606 224.447 C 123.625 225.087,121.424 221.991,122.390 218.516 C 122.926 216.583,124.900 215.469,126.835 216.007 M179.856 216.017 C 182.924 216.869,183.421 222.585,180.555 224.070 C 177.291 225.762,174.262 222.516,175.373 218.516 C 175.915 216.566,177.882 215.469,179.856 216.017 M143.473 216.244 C 144.352 216.612,144.688 217.490,144.273 218.337 C 143.841 219.221,143.309 219.406,140.903 219.510 L 138.807 219.601 138.807 217.799 L 138.807 215.997 140.843 215.997 C 142.249 215.997,143.064 216.073,143.473 216.244 M258.722 216.233 C 259.748 216.661,260.092 217.556,259.598 218.511 C 259.234 219.216,258.600 219.409,256.327 219.509 L 254.253 219.601 254.253 217.799 L 254.253 215.997 256.205 215.997 C 257.492 215.997,258.350 216.077,258.722 216.233 M284.461 216.236 C 285.139 216.519,285.400 216.941,285.400 217.753 C 285.400 219.070,284.286 219.548,281.210 219.550 L 279.814 219.551 279.814 217.774 L 279.814 215.997 281.851 215.997 C 283.224 215.997,284.074 216.075,284.461 216.236 M97.759 216.432 C 99.736 217.370,100.123 221.682,98.393 223.488 C 97.796 224.111,97.063 224.289,95.091 224.290 L 93.441 224.291 93.441 220.229 L 93.441 216.166 95.319 216.166 C 96.678 216.166,97.354 216.240,97.759 216.432 M217.350 221.985 C 218.564 223.493,218.563 223.600,217.336 224.255 C 214.913 225.549,213.198 222.446,215.450 220.844 C 215.791 220.601,216.117 220.459,216.174 220.527 C 216.231 220.596,216.760 221.252,217.350 221.985 " stroke="none" fill="#f48404" fill-rule="evenodd"></path><path id="path2" d="M97.165 33.446 C 79.324 35.389,67.797 46.041,63.306 64.733 C 62.204 69.319,42.477 162.604,42.129 164.875 C 39.748 180.409,45.395 190.289,58.428 193.391 C 65.032 194.963,75.018 194.852,82.063 193.129 C 96.448 189.611,105.821 179.550,109.856 163.292 C 110.420 161.022,115.108 138.924,115.108 138.538 C 115.108 138.331,113.272 138.303,102.042 138.340 L 88.976 138.383 86.489 150.148 C 83.489 164.336,83.294 164.930,80.907 167.140 C 77.409 170.379,71.088 170.115,69.320 166.657 C 68.139 164.346,67.447 168.114,79.017 113.838 C 89.985 62.383,89.430 64.856,90.435 62.917 C 93.323 57.341,102.430 56.353,104.189 61.425 C 104.932 63.565,104.993 63.136,101.807 78.197 C 100.557 84.104,99.534 88.998,99.534 89.073 C 99.534 89.148,105.421 89.209,112.616 89.209 L 125.697 89.209 128.201 77.317 C 132.409 57.335,132.633 53.364,129.954 46.233 C 126.259 36.396,113.994 31.613,97.165 33.446 M134.919 113.289 C 125.844 156.046,118.390 191.276,118.353 191.579 L 118.287 192.129 131.329 192.129 C 143.603 192.129,144.375 192.111,144.456 191.832 C 144.600 191.337,177.571 35.905,177.571 35.720 C 177.571 35.605,173.248 35.548,164.494 35.549 L 151.418 35.550 134.919 113.289 M265.510 89.548 C 238.231 103.129,215.836 114.273,215.743 114.313 C 215.650 114.352,215.612 114.425,215.658 114.475 C 215.737 114.559,315.775 70.570,315.987 70.358 C 316.179 70.166,315.432 64.822,315.217 64.844 C 315.157 64.850,292.789 75.967,265.510 89.548 M222.642 180.297 C 206.274 180.939,191.901 184.434,180.933 190.439 C 178.412 191.819,171.815 196.174,171.815 196.458 C 171.815 196.935,172.258 196.818,176.075 195.335 C 186.508 191.282,192.759 189.626,201.862 188.504 C 214.711 186.920,223.325 187.093,251.629 189.504 C 274.180 191.425,274.854 191.469,283.385 191.573 C 301.513 191.795,315.367 189.533,328.888 184.146 C 332.866 182.562,336.662 180.600,334.956 181.012 C 325.319 183.335,310.815 185.015,300.381 185.017 C 293.276 185.018,286.839 184.555,259.247 182.057 C 238.838 180.210,232.552 179.907,222.642 180.297 M210.580 189.765 C 196.548 190.824,186.822 193.705,179.298 199.032 C 177.839 200.065,178.015 200.058,180.507 198.980 C 195.471 192.504,216.181 191.701,246.043 196.437 C 254.244 197.738,261.168 198.385,268.218 198.509 C 277.253 198.669,280.919 198.307,295.226 195.844 C 298.443 195.290,301.133 194.837,301.205 194.837 C 301.277 194.837,301.311 194.666,301.281 194.456 C 301.212 193.968,300.895 193.968,295.980 194.462 C 281.273 195.941,266.847 195.544,253.830 193.303 C 244.236 191.650,241.721 191.251,237.995 190.790 C 230.534 189.865,228.327 189.727,220.144 189.671 C 215.954 189.642,211.650 189.684,210.580 189.765 " stroke="none" fill="#2c6c1c" fill-rule="evenodd"></path><path id="path3" d="" stroke="none" fill="#2c6c24" fill-rule="evenodd"></path><path id="path4" d="" stroke="none" fill="#a88c14" fill-rule="evenodd"></path></g></svg>